<svg width="16" height="17" viewBox="0 0 16 17" fill="none" xmlns="http://www.w3.org/2000/svg">
<mask id="mask0_439_6924" style="mask-type:alpha" maskUnits="userSpaceOnUse" x="-4" y="-3" width="22" height="22">
<rect x="-3.5666" y="-2.4225" width="20.8787" height="20.8787" fill="#D9D9D9"/>
</mask>
<g mask="url(#mask0_439_6924)">
<path d="M1.13093 6.10962H12.6142V3.58678C12.6142 3.51979 12.5863 3.45846 12.5305 3.40278C12.4748 3.34696 12.4134 3.31905 12.3465 3.31905H1.39865C1.33167 3.31905 1.27034 3.34696 1.21466 3.40278C1.15884 3.45846 1.13093 3.51979 1.13093 3.58678V6.10962ZM1.39865 15.9332C1.00703 15.9332 0.676019 15.798 0.405611 15.5276C0.135204 15.2572 0 14.9262 0 14.5346V3.58678C0 3.20531 0.137741 2.87683 0.413223 2.60135C0.688706 2.32587 1.01718 2.18813 1.39865 2.18813H3.29904V0.581993C3.29904 0.415978 3.35414 0.277439 3.46433 0.166376C3.57453 0.0554581 3.71198 0 3.87669 0C4.04154 0 4.18052 0.0554581 4.29361 0.166376C4.40685 0.277439 4.46346 0.415978 4.46346 0.581993V2.18813H9.31514V0.565464C9.31514 0.404959 9.36879 0.270552 9.47608 0.162244C9.58352 0.0540807 9.71684 0 9.87604 0C10.0352 0 10.17 0.0540807 10.2803 0.162244C10.3908 0.270552 10.4461 0.404959 10.4461 0.565464V2.18813H12.3465C12.7279 2.18813 13.0564 2.32587 13.3319 2.60135C13.6074 2.87683 13.7451 3.20531 13.7451 3.58678V7.40453C13.7451 7.56503 13.6914 7.69937 13.584 7.80753C13.4767 7.91584 13.3434 7.96999 13.1842 7.96999C13.025 7.96999 12.8902 7.91584 12.7799 7.80753C12.6694 7.69937 12.6142 7.56503 12.6142 7.40453V7.24054H1.13093V14.5346C1.13093 14.6016 1.15884 14.6629 1.21466 14.7186C1.27034 14.7744 1.33167 14.8023 1.39865 14.8023H6.69857C6.85907 14.8023 6.99348 14.856 7.10179 14.9633C7.20995 15.0707 7.26403 15.204 7.26403 15.3632C7.26403 15.5224 7.20995 15.6572 7.10179 15.7675C6.99348 15.878 6.85907 15.9332 6.69857 15.9332H1.39865ZM12.2547 16.9772C11.2151 16.9772 10.3325 16.6127 9.60701 15.8839C8.88147 15.1551 8.51871 14.271 8.51871 13.2314C8.51871 12.192 8.88314 11.3095 9.61201 10.584C10.3407 9.85842 11.2249 9.49565 12.2645 9.49565C13.3041 9.49565 14.1865 9.86009 14.9119 10.589C15.6375 11.3177 16.0002 12.2018 16.0002 13.2414C16.0002 14.2809 15.6359 15.1633 14.9071 15.8889C14.1783 16.6144 13.2941 16.9772 12.2547 16.9772ZM12.7314 13.0357V11.6705C12.7314 11.5425 12.6847 11.4319 12.5913 11.3386C12.4981 11.2454 12.3875 11.1988 12.2595 11.1988C12.1314 11.1988 12.0208 11.2454 11.9276 11.3386C11.8344 11.4319 11.7877 11.5425 11.7877 11.6705V13.1527C11.7877 13.2575 11.8067 13.3501 11.8447 13.4304C11.8826 13.5107 11.935 13.5845 12.0022 13.6516L13.1111 14.7606C13.2067 14.8509 13.3187 14.8974 13.4472 14.9002C13.5755 14.9029 13.6876 14.8564 13.7836 14.7606C13.8796 14.6646 13.9276 14.5538 13.9276 14.4282C13.9276 14.3025 13.8796 14.1891 13.7836 14.0879L12.7314 13.0357Z" fill="#222222"/>
</g>
</svg>
