<svg width="16" height="16" viewBox="0 0 16 16" fill="none" xmlns="http://www.w3.org/2000/svg">
<mask id="mask0_233_7626" style="mask-type:alpha" maskUnits="userSpaceOnUse" x="-3" y="-3" width="22" height="22">
<rect x="-2.10431" y="-2.10542" width="20.2105" height="20.2105" fill="#D9D9D9"/>
</mask>
<g mask="url(#mask0_233_7626)">
<path d="M6.80483 9.80734L4.84862 7.85093C4.73199 7.73444 4.58539 7.67479 4.40883 7.67198C4.23241 7.66931 4.08315 7.72896 3.96104 7.85093C3.83908 7.97303 3.7781 8.12096 3.7781 8.29472C3.7781 8.46847 3.83908 8.6164 3.96104 8.7385L6.27199 11.0494C6.42427 11.2016 6.60188 11.2777 6.80483 11.2777C7.00777 11.2777 7.18539 11.2016 7.33767 11.0494L12.0227 6.36441C12.1392 6.24777 12.1988 6.10118 12.2017 5.92462C12.2043 5.7482 12.1447 5.59893 12.0227 5.47683C11.9006 5.35486 11.7527 5.29388 11.5789 5.29388C11.4052 5.29388 11.2572 5.35486 11.1351 5.47683L6.80483 9.80734ZM8.00145 16C6.89493 16 5.85486 15.79 4.88125 15.3701C3.90764 14.9501 3.06076 14.3802 2.34063 13.6604C1.62049 12.9405 1.05031 12.094 0.630104 11.1208C0.210034 10.1476 0 9.10784 0 8.00145C0 6.89493 0.209964 5.85486 0.629893 4.88125C1.04982 3.90764 1.61972 3.06076 2.33957 2.34063C3.05943 1.62049 3.90596 1.05031 4.87915 0.630104C5.85234 0.210034 6.89212 0 7.99851 0C9.10503 0 10.1451 0.209964 11.1187 0.629893C12.0923 1.04982 12.9392 1.61972 13.6593 2.33957C14.3795 3.05943 14.9496 3.90596 15.3699 4.87915C15.7899 5.85234 16 6.89212 16 7.99851C16 9.10503 15.79 10.1451 15.3701 11.1187C14.9501 12.0923 14.3802 12.9392 13.6604 13.6593C12.9405 14.3795 12.094 14.9496 11.1208 15.3699C10.1476 15.7899 9.10784 16 8.00145 16ZM7.99998 14.7368C9.88068 14.7368 11.4737 14.0842 12.7789 12.7789C14.0842 11.4737 14.7368 9.88068 14.7368 7.99998C14.7368 6.11928 14.0842 4.5263 12.7789 3.22104C11.4737 1.91578 9.88068 1.26315 7.99998 1.26315C6.11928 1.26315 4.5263 1.91578 3.22104 3.22104C1.91578 4.5263 1.26315 6.11928 1.26315 7.99998C1.26315 9.88068 1.91578 11.4737 3.22104 12.7789C4.5263 14.0842 6.11928 14.7368 7.99998 14.7368Z" fill="#3D70CC"/>
</g>
</svg>
