<svg width="16" height="16" viewBox="0 0 16 16" fill="none" xmlns="http://www.w3.org/2000/svg">
<path d="M6.73396 9.70521L4.79813 7.76917C4.68271 7.65389 4.53764 7.59486 4.36292 7.59208C4.18833 7.58945 4.04063 7.64847 3.91979 7.76917C3.7991 7.89 3.73875 8.03639 3.73875 8.20833C3.73875 8.38028 3.7991 8.52667 3.91979 8.6475L6.20667 10.9344C6.35736 11.0849 6.53313 11.1602 6.73396 11.1602C6.93479 11.1602 7.11056 11.0849 7.26125 10.9344L11.8975 6.29813C12.0128 6.18271 12.0718 6.03764 12.0746 5.86292C12.0772 5.68833 12.0182 5.54063 11.8975 5.41979C11.7767 5.2991 11.6303 5.23875 11.4583 5.23875C11.2864 5.23875 11.14 5.2991 11.0192 5.41979L6.73396 9.70521ZM7.91813 15.8333C6.82313 15.8333 5.79389 15.6256 4.83042 15.21C3.86694 14.7944 3.02889 14.2305 2.31625 13.5181C1.60361 12.8058 1.03937 11.9681 0.623542 11.005C0.207847 10.0419 0 9.01299 0 7.91813C0 6.82313 0.207778 5.79389 0.623333 4.83042C1.03889 3.86694 1.60285 3.02889 2.31521 2.31625C3.02757 1.60361 3.86528 1.03937 4.82833 0.623542C5.79139 0.207847 6.82035 0 7.91521 0C9.01021 0 10.0394 0.207777 11.0029 0.623333C11.9664 1.03889 12.8044 1.60285 13.5171 2.31521C14.2297 3.02757 14.794 3.86528 15.2098 4.82833C15.6255 5.79139 15.8333 6.82035 15.8333 7.91521C15.8333 9.01021 15.6256 10.0394 15.21 11.0029C14.7944 11.9664 14.2305 12.8044 13.5181 13.5171C12.8058 14.2297 11.9681 14.794 11.005 15.2098C10.0419 15.6255 9.01299 15.8333 7.91813 15.8333ZM7.91667 14.5833C9.77778 14.5833 11.3542 13.9375 12.6458 12.6458C13.9375 11.3542 14.5833 9.77778 14.5833 7.91667C14.5833 6.05556 13.9375 4.47917 12.6458 3.1875C11.3542 1.89583 9.77778 1.25 7.91667 1.25C6.05556 1.25 4.47917 1.89583 3.1875 3.1875C1.89583 4.47917 1.25 6.05556 1.25 7.91667C1.25 9.77778 1.89583 11.3542 3.1875 12.6458C4.47917 13.9375 6.05556 14.5833 7.91667 14.5833Z" fill="#222222"/>
</svg>
