<svg width="15" height="13" viewBox="0 0 15 13" fill="none" xmlns="http://www.w3.org/2000/svg">
<mask id="mask0_233_7602" style="mask-type:alpha" maskUnits="userSpaceOnUse" x="-3" y="-4" width="21" height="21">
<rect x="-2.96958" y="-3.67827" width="20.3563" height="20.3563" fill="#D9D9D9"/>
</mask>
<g mask="url(#mask0_233_7602)">
<path d="M5.56215 12.2252C5.38191 12.2252 5.23079 12.1642 5.10879 12.0422C4.98694 11.9202 4.92601 11.7691 4.92601 11.5889C4.92601 11.4085 4.98694 11.2575 5.10879 11.1357C5.23079 11.0139 5.38191 10.953 5.56215 10.953H13.7829C13.9631 10.953 14.1142 11.014 14.236 11.136C14.358 11.2579 14.419 11.4091 14.419 11.5893C14.419 11.7697 14.358 11.9207 14.236 12.0424C14.1142 12.1643 13.9631 12.2252 13.7829 12.2252H5.56215ZM5.56215 7.13615C5.38191 7.13615 5.23079 7.07515 5.10879 6.95316C4.98694 6.83116 4.92601 6.68005 4.92601 6.49981C4.92601 6.31943 4.98694 6.16838 5.10879 6.04667C5.23079 5.92481 5.38191 5.86388 5.56215 5.86388H13.7829C13.9631 5.86388 14.1142 5.92488 14.236 6.04688C14.358 6.16888 14.419 6.31999 14.419 6.50023C14.419 6.68061 14.358 6.83166 14.236 6.95337C14.1142 7.07523 13.9631 7.13615 13.7829 7.13615H5.56215ZM5.56215 2.04708C5.38191 2.04708 5.23079 1.98608 5.10879 1.86408C4.98694 1.74209 4.92601 1.59097 4.92601 1.41073C4.92601 1.23035 4.98694 1.07931 5.10879 0.957593C5.23079 0.835738 5.38191 0.774811 5.56215 0.774811H13.7829C13.9631 0.774811 14.1142 0.835809 14.236 0.957806C14.358 1.0798 14.419 1.23092 14.419 1.41116C14.419 1.59154 14.358 1.74258 14.236 1.8643C14.1142 1.98615 13.9631 2.04708 13.7829 2.04708H5.56215ZM1.41095 13C1.0229 13 0.690771 12.8619 0.414548 12.5855C0.138183 12.3093 0 11.9771 0 11.5891C0 11.2011 0.138183 10.8689 0.414548 10.5927C0.690771 10.3163 1.0229 10.1781 1.41095 10.1781C1.79899 10.1781 2.13112 10.3163 2.40734 10.5927C2.68371 10.8689 2.82189 11.2011 2.82189 11.5891C2.82189 11.9771 2.68371 12.3093 2.40734 12.5855C2.13112 12.8619 1.79899 13 1.41095 13ZM1.41095 7.91096C1.0229 7.91096 0.690771 7.77278 0.414548 7.49642C0.138183 7.22019 0 6.88806 0 6.50002C0 6.11198 0.138183 5.77984 0.414548 5.50362C0.690771 5.22726 1.0229 5.08907 1.41095 5.08907C1.79899 5.08907 2.13112 5.22726 2.40734 5.50362C2.68371 5.77984 2.82189 6.11198 2.82189 6.50002C2.82189 6.88806 2.68371 7.22019 2.40734 7.49642C2.13112 7.77278 1.79899 7.91096 1.41095 7.91096ZM1.41095 2.82189C1.0229 2.82189 0.690771 2.68371 0.414548 2.40734C0.138183 2.13112 0 1.79899 0 1.41095C0 1.0229 0.138183 0.690771 0.414548 0.414547C0.690771 0.138182 1.0229 0 1.41095 0C1.79899 0 2.13112 0.138182 2.40734 0.414547C2.68371 0.690771 2.82189 1.0229 2.82189 1.41095C2.82189 1.79899 2.68371 2.13112 2.40734 2.40734C2.13112 2.68371 1.79899 2.82189 1.41095 2.82189Z" fill="#3D70CC"/>
</g>
</svg>
