<svg width="15" height="13" viewBox="0 0 15 13" fill="none" xmlns="http://www.w3.org/2000/svg">
<path d="M5.46479 12.0112C5.28771 12.0112 5.13924 11.9513 5.01938 11.8315C4.89965 11.7116 4.83979 11.5631 4.83979 11.386C4.83979 11.2088 4.89965 11.0604 5.01938 10.9408C5.13924 10.8211 5.28771 10.7612 5.46479 10.7612H13.5417C13.7188 10.7612 13.8672 10.8212 13.9869 10.941C14.1067 11.0609 14.1667 11.2094 14.1667 11.3865C14.1667 11.5637 14.1067 11.7121 13.9869 11.8317C13.8672 11.9514 13.7188 12.0112 13.5417 12.0112H5.46479ZM5.46479 7.01125C5.28771 7.01125 5.13924 6.95132 5.01938 6.83146C4.89965 6.7116 4.83979 6.56312 4.83979 6.38604C4.83979 6.20882 4.89965 6.06042 5.01938 5.94083C5.13924 5.82111 5.28771 5.76125 5.46479 5.76125H13.5417C13.7188 5.76125 13.8672 5.82118 13.9869 5.94104C14.1067 6.0609 14.1667 6.20937 14.1667 6.38646C14.1667 6.56368 14.1067 6.71208 13.9869 6.83167C13.8672 6.95139 13.7188 7.01125 13.5417 7.01125H5.46479ZM5.46479 2.01125C5.28771 2.01125 5.13924 1.95132 5.01938 1.83146C4.89965 1.7116 4.83979 1.56312 4.83979 1.38604C4.83979 1.20882 4.89965 1.06042 5.01938 0.940833C5.13924 0.82111 5.28771 0.761249 5.46479 0.761249H13.5417C13.7188 0.761249 13.8672 0.82118 13.9869 0.941041C14.1067 1.0609 14.1667 1.20937 14.1667 1.38646C14.1667 1.56368 14.1067 1.71208 13.9869 1.83167C13.8672 1.95139 13.7188 2.01125 13.5417 2.01125H5.46479ZM1.38625 12.7725C1.005 12.7725 0.678681 12.6367 0.407292 12.3652C0.135764 12.0938 0 11.7675 0 11.3862C0 11.005 0.135764 10.6787 0.407292 10.4073C0.678681 10.1358 1.005 10 1.38625 10C1.7675 10 2.09382 10.1358 2.36521 10.4073C2.63674 10.6787 2.7725 11.005 2.7725 11.3862C2.7725 11.7675 2.63674 12.0938 2.36521 12.3652C2.09382 12.6367 1.7675 12.7725 1.38625 12.7725ZM1.38625 7.7725C1.005 7.7725 0.678681 7.63673 0.407292 7.36521C0.135764 7.09382 0 6.7675 0 6.38625C0 6.005 0.135764 5.67868 0.407292 5.40729C0.678681 5.13576 1.005 5 1.38625 5C1.7675 5 2.09382 5.13576 2.36521 5.40729C2.63674 5.67868 2.7725 6.005 2.7725 6.38625C2.7725 6.7675 2.63674 7.09382 2.36521 7.36521C2.09382 7.63673 1.7675 7.7725 1.38625 7.7725ZM1.38625 2.7725C1.005 2.7725 0.678681 2.63674 0.407292 2.36521C0.135764 2.09382 0 1.7675 0 1.38625C0 1.005 0.135764 0.67868 0.407292 0.407291C0.678681 0.135764 1.005 0 1.38625 0C1.7675 0 2.09382 0.135764 2.36521 0.407291C2.63674 0.67868 2.7725 1.005 2.7725 1.38625C2.7725 1.7675 2.63674 2.09382 2.36521 2.36521C2.09382 2.63674 1.7675 2.7725 1.38625 2.7725Z" fill="#222222"/>
</svg>
