<svg width="14" height="16" viewBox="0 0 14 16" fill="none" xmlns="http://www.w3.org/2000/svg">
<path d="M6.25 15.9935C5.83444 15.9935 5.47951 15.8464 5.18521 15.5521C4.89076 15.2578 4.74354 14.9028 4.74354 14.4871H7.75646C7.75646 14.9028 7.60924 15.2578 7.31479 15.5521C7.02049 15.8464 6.66556 15.9935 6.25 15.9935ZM1.50646 12.404V6.18583C1.50646 5.22333 1.76285 4.35958 2.27563 3.59458C2.7884 2.82958 3.46632 2.25049 4.30938 1.85729C4.46632 1.78146 4.60812 1.77937 4.73479 1.85104C4.86132 1.92257 4.95563 2.03153 5.01771 2.17792C5.07965 2.32431 5.08868 2.48056 5.04479 2.64667C5.00104 2.81278 4.875 2.95938 4.66667 3.08646C4.08861 3.38993 3.62576 3.81007 3.27813 4.34688C2.93035 4.88382 2.75646 5.49681 2.75646 6.18583V12.404H9.74354V9.84604C9.74354 9.66868 9.8034 9.52021 9.92313 9.40063C10.0427 9.2809 10.1912 9.22104 10.3685 9.22104C10.5459 9.22104 10.6944 9.2809 10.8142 9.40063C10.9338 9.52021 10.9935 9.66868 10.9935 9.84604V12.404H11.875C12.0524 12.404 12.2008 12.4638 12.3204 12.5833C12.4401 12.7031 12.5 12.8516 12.5 13.029C12.5 13.2062 12.4401 13.3547 12.3204 13.4744C12.2008 13.594 12.0524 13.6538 11.875 13.6538H0.625C0.447639 13.6538 0.299167 13.594 0.179583 13.4744C0.059861 13.3547 0 13.2062 0 13.029C0 12.8516 0.059861 12.7031 0.179583 12.5833C0.299167 12.4638 0.447639 12.404 0.625 12.404H1.50646ZM9.38146 6.41021C9.16674 6.34618 8.96507 6.26528 8.77646 6.1675C8.58785 6.06972 8.40917 5.94125 8.24042 5.78208L7.74042 5.95354C7.60264 5.9984 7.46826 5.99681 7.33729 5.94875C7.20646 5.90069 7.10312 5.81896 7.02729 5.70354L6.91667 5.5C6.84083 5.3707 6.81146 5.23424 6.82854 5.09063C6.84562 4.94688 6.91451 4.82583 7.03521 4.7275L7.41354 4.40396C7.35368 4.16993 7.32375 3.9359 7.32375 3.70188C7.32375 3.46799 7.35368 3.23403 7.41354 3L7.03521 2.67625C6.91993 2.58333 6.85104 2.46583 6.82854 2.32375C6.80604 2.18167 6.83278 2.04597 6.90875 1.91667L7.04813 1.70042C7.12396 1.585 7.22382 1.50326 7.34771 1.45521C7.47174 1.40715 7.60264 1.40556 7.74042 1.45042L8.24042 1.62187C8.40389 1.46271 8.58125 1.33424 8.7725 1.23646C8.96375 1.13868 9.16674 1.05771 9.38146 0.993542L9.46625 0.501667C9.49736 0.355278 9.56847 0.23507 9.67958 0.141042C9.79056 0.0470143 9.91924 0 10.0656 0H10.2869C10.4333 0 10.562 0.049167 10.6731 0.1475C10.7842 0.245834 10.8553 0.368125 10.8862 0.514375L10.971 0.993542C11.1859 1.05771 11.3889 1.13868 11.58 1.23646C11.7713 1.33424 11.9486 1.46271 12.1121 1.62187L12.6121 1.45042C12.75 1.40556 12.8844 1.40715 13.0152 1.45521C13.146 1.50326 13.2494 1.585 13.3252 1.70042L13.4358 1.90396C13.5117 2.03313 13.541 2.16958 13.524 2.31333C13.5069 2.45694 13.438 2.57792 13.3173 2.67625L12.939 3C12.9988 3.23403 13.0288 3.46799 13.0288 3.70188C13.0288 3.9359 12.9988 4.16993 12.939 4.40396L13.3173 4.7275C13.4327 4.82056 13.5016 4.93813 13.524 5.08021C13.5465 5.22229 13.5198 5.35792 13.444 5.48708L13.3044 5.70354C13.2285 5.81896 13.1287 5.90069 13.0048 5.94875C12.8809 5.99681 12.75 5.9984 12.6121 5.95354L12.1121 5.78208C11.9433 5.94125 11.7647 6.06972 11.576 6.1675C11.3876 6.26528 11.1859 6.34618 10.971 6.41021L10.8862 6.90229C10.8553 7.04854 10.7842 7.16868 10.6731 7.26271C10.562 7.35674 10.4333 7.40375 10.2869 7.40375H10.0656C9.91924 7.40375 9.79056 7.35465 9.67958 7.25646C9.56847 7.15813 9.49736 7.03577 9.46625 6.88938L9.38146 6.41021ZM10.1763 5.43271C10.656 5.43271 11.0644 5.26417 11.4015 4.92708C11.7385 4.59 11.9071 4.1816 11.9071 3.70188C11.9071 3.22215 11.7385 2.81375 11.4015 2.47667C11.0644 2.13958 10.656 1.97104 10.1763 1.97104C9.69653 1.97104 9.28813 2.13958 8.95104 2.47667C8.61396 2.81375 8.44542 3.22215 8.44542 3.70188C8.44542 4.1816 8.61396 4.59 8.95104 4.92708C9.28813 5.26417 9.69653 5.43271 10.1763 5.43271Z" fill="#222222"/>
</svg>
