<svg width="14" height="16" viewBox="0 0 14 16" fill="none" xmlns="http://www.w3.org/2000/svg">
<mask id="mask0_233_7634" style="mask-type:alpha" maskUnits="userSpaceOnUse" x="-4" y="-3" width="21" height="21">
<rect x="-3.75152" y="-2.08434" width="20.0081" height="20.0081" fill="#D9D9D9"/>
</mask>
<g mask="url(#mask0_233_7634)">
<path d="M6.25253 16C5.8368 16 5.48173 15.8528 5.18731 15.5584C4.89274 15.264 4.74546 14.9088 4.74546 14.4929H7.7596C7.7596 14.9088 7.61231 15.264 7.31775 15.5584C7.02333 15.8528 6.66825 16 6.25253 16ZM1.50707 12.409V6.18834C1.50707 5.22545 1.76356 4.36135 2.27655 3.59604C2.78953 2.83073 3.46772 2.2514 4.31112 1.85804C4.46813 1.78218 4.60999 1.78009 4.73671 1.85179C4.86329 1.92335 4.95763 2.03235 5.01974 2.1788C5.08171 2.32525 5.09074 2.48156 5.04683 2.64774C5.00306 2.81392 4.87697 2.96057 4.66855 3.08771C4.09027 3.3913 3.62723 3.81161 3.27945 4.34863C2.93153 4.8858 2.75757 5.49903 2.75757 6.18834V12.409H9.74748V9.85003C9.74748 9.67259 9.80737 9.52406 9.92714 9.40443C10.0468 9.28466 10.1953 9.22477 10.3727 9.22477C10.5502 9.22477 10.6988 9.28466 10.8185 9.40443C10.9382 9.52406 10.998 9.67259 10.998 9.85003V12.409H11.8798C12.0572 12.409 12.2058 12.4688 12.3254 12.5884C12.4452 12.7082 12.5051 12.8568 12.5051 13.0342C12.5051 13.2115 12.4452 13.3601 12.3254 13.4798C12.2058 13.5995 12.0572 13.6593 11.8798 13.6593H0.625253C0.44782 13.6593 0.299288 13.5995 0.179656 13.4798C0.0598852 13.3601 0 13.2115 0 13.0342C0 12.8568 0.0598852 12.7082 0.179656 12.5884C0.299288 12.4688 0.44782 12.409 0.625253 12.409H1.50707ZM9.38525 6.4128C9.17044 6.34875 8.9687 6.26781 8.78001 6.17C8.59132 6.07218 8.41257 5.94365 8.24375 5.78442L7.74355 5.95595C7.60571 6.00083 7.47129 5.99923 7.34026 5.95116C7.20937 5.90308 7.106 5.82131 7.03013 5.70585L6.91946 5.50223C6.8436 5.37287 6.81421 5.23635 6.8313 5.09268C6.84839 4.94888 6.91731 4.82779 7.03805 4.72941L7.41654 4.40574C7.35665 4.17162 7.32671 3.9375 7.32671 3.70337C7.32671 3.46939 7.35665 3.23534 7.41654 3.00121L7.03805 2.67733C6.92273 2.58438 6.85381 2.46683 6.8313 2.32469C6.80879 2.18255 6.83554 2.0468 6.91154 1.91744L7.05098 1.7011C7.12684 1.58564 7.22674 1.50387 7.35068 1.4558C7.47476 1.40772 7.60571 1.40612 7.74355 1.451L8.24375 1.62253C8.40729 1.4633 8.58472 1.33478 8.77605 1.23696C8.96738 1.13914 9.17044 1.05814 9.38525 0.993944L9.47008 0.50187C9.5012 0.355422 9.57234 0.235165 9.6835 0.141099C9.79452 0.0470333 9.92325 0 10.0697 0H10.291C10.4375 0 10.5663 0.0491869 10.6774 0.14756C10.7886 0.245933 10.8597 0.368274 10.8907 0.514583L10.9755 0.993944C11.1904 1.05814 11.3935 1.13914 11.5847 1.23696C11.776 1.33478 11.9534 1.4633 12.117 1.62253L12.6172 1.451C12.7552 1.40612 12.8896 1.40772 13.0205 1.4558C13.1514 1.50387 13.2547 1.58564 13.3306 1.7011L13.4413 1.90473C13.5171 2.03395 13.5465 2.17046 13.5294 2.31427C13.5123 2.45794 13.4434 2.57896 13.3227 2.67733L12.9442 3.00121C13.0041 3.23534 13.034 3.46939 13.034 3.70337C13.034 3.9375 13.0041 4.17162 12.9442 4.40574L13.3227 4.72941C13.4381 4.82251 13.5071 4.94012 13.5294 5.08226C13.5519 5.2244 13.5253 5.36009 13.4494 5.4893L13.3098 5.70585C13.2339 5.82131 13.134 5.90308 13.0101 5.95116C12.8861 5.99923 12.7552 6.00083 12.6172 5.95595L12.117 5.78442C11.9482 5.94365 11.7694 6.07218 11.5807 6.17C11.3922 6.26781 11.1904 6.34875 10.9755 6.4128L10.8907 6.90508C10.8597 7.05139 10.7886 7.17158 10.6774 7.26565C10.5663 7.35971 10.4375 7.40675 10.291 7.40675H10.0697C9.92325 7.40675 9.79452 7.35763 9.6835 7.25939C9.57234 7.16102 9.5012 7.03861 9.47008 6.89216L9.38525 6.4128ZM10.1804 5.43491C10.6603 5.43491 11.0689 5.2663 11.4061 4.92908C11.7433 4.59186 11.9119 4.18329 11.9119 3.70337C11.9119 3.22346 11.7433 2.81489 11.4061 2.47767C11.0689 2.14045 10.6603 1.97184 10.1804 1.97184C9.70045 1.97184 9.29188 2.14045 8.95466 2.47767C8.61744 2.81489 8.44883 3.22346 8.44883 3.70337C8.44883 4.18329 8.61744 4.59186 8.95466 4.92908C9.29188 5.2663 9.70045 5.43491 10.1804 5.43491Z" fill="#3D70CC"/>
</g>
</svg>
