<svg width="13" height="13" viewBox="0 0 13 13" fill="none" xmlns="http://www.w3.org/2000/svg">
<mask id="mask0_233_7471" style="mask-type:alpha" maskUnits="userSpaceOnUse" x="-4" y="-5" width="21" height="22">
<rect x="-3.9" y="-4.0665" width="20.8" height="20.8" fill="#D9D9D9"/>
</mask>
<g mask="url(#mask0_233_7471)">
<path d="M6.5 6.06667C5.66583 6.06667 4.95177 5.76969 4.35782 5.17573C3.76372 4.58163 3.46667 3.8675 3.46667 3.03333C3.46667 2.19917 3.76372 1.48511 4.35782 0.89115C4.95177 0.29705 5.66583 0 6.5 0C7.33417 0 8.04823 0.29705 8.64218 0.89115C9.23628 1.48511 9.53333 2.19917 9.53333 3.03333C9.53333 3.8675 9.23628 4.58163 8.64218 5.17573C8.04823 5.76969 7.33417 6.06667 6.5 6.06667ZM0 11.3501V10.7399C0 10.3156 0.115267 9.92254 0.3458 9.56085C0.576333 9.19916 0.884433 8.92111 1.2701 8.72668C2.12666 8.30678 2.99079 7.99182 3.86252 7.7818C4.73424 7.57178 5.6134 7.46677 6.5 7.46677C7.3866 7.46677 8.26576 7.57178 9.13748 7.7818C10.0092 7.99182 10.8733 8.30678 11.7299 8.72668C12.1156 8.92111 12.4237 9.19916 12.6542 9.56085C12.8847 9.92254 13 10.3156 13 10.7399V11.3501C13 11.7155 12.8719 12.0264 12.6158 12.2826C12.3597 12.5387 12.0489 12.6668 11.6833 12.6668H1.31668C0.951095 12.6668 0.64025 12.5387 0.38415 12.2826C0.12805 12.0264 0 11.7155 0 11.3501ZM1.3 11.3668H11.7V10.7399C11.7 10.5644 11.6492 10.4019 11.5475 10.2524C11.4458 10.1031 11.3078 9.98118 11.1334 9.88672C10.3866 9.51896 9.62527 9.24033 8.84932 9.05082C8.07322 8.86145 7.29011 8.76677 6.5 8.76677C5.70989 8.76677 4.92678 8.86145 4.15068 9.05082C3.37473 9.24033 2.61336 9.51896 1.86658 9.88672C1.69224 9.98118 1.55422 10.1031 1.45253 10.2524C1.35084 10.4019 1.3 10.5644 1.3 10.7399V11.3668ZM6.5 4.76667C6.97667 4.76667 7.38472 4.59694 7.72417 4.2575C8.06361 3.91806 8.23333 3.51 8.23333 3.03333C8.23333 2.55667 8.06361 2.14861 7.72417 1.80917C7.38472 1.46972 6.97667 1.3 6.5 1.3C6.02333 1.3 5.61528 1.46972 5.27583 1.80917C4.93639 2.14861 4.76667 2.55667 4.76667 3.03333C4.76667 3.51 4.93639 3.91806 5.27583 4.2575C5.61528 4.59694 6.02333 4.76667 6.5 4.76667Z" fill="#3D70CC"/>
</g>
</svg>
