<svg width="13" height="13" viewBox="0 0 13 13" fill="none" xmlns="http://www.w3.org/2000/svg">
<path d="M6.25 5.83333C5.44792 5.83333 4.76132 5.54778 4.19021 4.97667C3.61896 4.40542 3.33333 3.71875 3.33333 2.91667C3.33333 2.11458 3.61896 1.42799 4.19021 0.856875C4.76132 0.285625 5.44792 0 6.25 0C7.05208 0 7.73868 0.285625 8.30979 0.856875C8.88104 1.42799 9.16667 2.11458 9.16667 2.91667C9.16667 3.71875 8.88104 4.40542 8.30979 4.97667C7.73868 5.54778 7.05208 5.83333 6.25 5.83333ZM0 10.9135V10.3269C0 9.91882 0.110833 9.5409 0.3325 9.19312C0.554167 8.84535 0.850417 8.57799 1.22125 8.39104C2.04486 7.98729 2.87576 7.68444 3.71396 7.4825C4.55215 7.28056 5.3975 7.17958 6.25 7.17958C7.1025 7.17958 7.94785 7.28056 8.78604 7.4825C9.62424 7.68444 10.4551 7.98729 11.2787 8.39104C11.6496 8.57799 11.9458 8.84535 12.1675 9.19312C12.3892 9.5409 12.5 9.91882 12.5 10.3269V10.9135C12.5 11.2649 12.3769 11.5638 12.1306 11.8102C11.8844 12.0565 11.5855 12.1796 11.234 12.1796H1.26604C0.914514 12.1796 0.615625 12.0565 0.369375 11.8102C0.123125 11.5638 0 11.2649 0 10.9135ZM1.25 10.9296H11.25V10.3269C11.25 10.1581 11.2011 10.0019 11.1033 9.85812C11.0056 9.71451 10.8728 9.59729 10.7052 9.50646C9.98715 9.15285 9.25507 8.88493 8.50896 8.70271C7.76271 8.52063 7.00972 8.42958 6.25 8.42958C5.49028 8.42958 4.73729 8.52063 3.99104 8.70271C3.24493 8.88493 2.51285 9.15285 1.79479 9.50646C1.62715 9.59729 1.49444 9.71451 1.39667 9.85812C1.29889 10.0019 1.25 10.1581 1.25 10.3269V10.9296ZM6.25 4.58333C6.70833 4.58333 7.10069 4.42014 7.42708 4.09375C7.75347 3.76736 7.91667 3.375 7.91667 2.91667C7.91667 2.45833 7.75347 2.06597 7.42708 1.73958C7.10069 1.41319 6.70833 1.25 6.25 1.25C5.79167 1.25 5.39931 1.41319 5.07292 1.73958C4.74653 2.06597 4.58333 2.45833 4.58333 2.91667C4.58333 3.375 4.74653 3.76736 5.07292 4.09375C5.39931 4.42014 5.79167 4.58333 6.25 4.58333Z" fill="#222222"/>
</svg>
