<svg width="32" height="32" viewBox="0 0 32 32" fill="none" xmlns="http://www.w3.org/2000/svg">
<rect width="32" height="32" rx="2" fill="white"/>
<mask id="mask0_439_6979" style="mask-type:alpha" maskUnits="userSpaceOnUse" x="6" y="6" width="20" height="20">
<rect x="6" y="6" width="20" height="20" fill="#D9D9D9"/>
</mask>
<g mask="url(#mask0_439_6979)">
<path d="M15.4582 16.5415V19.2498C15.4582 19.4033 15.5097 19.5319 15.6128 19.6357C15.7158 19.7396 15.8434 19.7915 15.9957 19.7915C16.148 19.7915 16.2771 19.7396 16.3828 19.6357C16.4886 19.5319 16.5415 19.4033 16.5415 19.2498V16.5415H19.2498C19.4033 16.5415 19.5319 16.49 19.6357 16.3869C19.7396 16.2839 19.7915 16.1562 19.7915 16.004C19.7915 15.8516 19.7396 15.7226 19.6357 15.6169C19.5319 15.5111 19.4033 15.4582 19.2498 15.4582H16.5415V12.7498C16.5415 12.5964 16.49 12.4678 16.3869 12.364C16.2839 12.2601 16.1562 12.2082 16.004 12.2082C15.8516 12.2082 15.7226 12.2601 15.6169 12.364C15.5111 12.4678 15.4582 12.5964 15.4582 12.7498V15.4582H12.7498C12.5964 15.4582 12.4678 15.5097 12.364 15.6128C12.2601 15.7158 12.2082 15.8434 12.2082 15.9957C12.2082 16.148 12.2601 16.2771 12.364 16.3828C12.4678 16.4886 12.5964 16.5415 12.7498 16.5415H15.4582ZM16.0069 23.5832C14.9637 23.5832 13.9812 23.3858 13.0594 22.9911C12.1376 22.5964 11.3308 22.0532 10.639 21.3617C9.9472 20.6702 9.4038 19.864 9.0088 18.9432C8.61393 18.0225 8.4165 17.0387 8.4165 15.9917C8.4165 14.9448 8.61387 13.9639 9.00859 13.049C9.40331 12.1341 9.94643 11.3308 10.638 10.639C11.3295 9.9472 12.1357 9.4038 13.0565 9.0088C13.9772 8.61393 14.961 8.4165 16.008 8.4165C17.0549 8.4165 18.0358 8.61386 18.9507 9.00859C19.8655 9.40331 20.6689 9.94643 21.3607 10.638C22.0525 11.3295 22.5959 12.134 22.9909 13.0515C23.3857 13.9691 23.5832 14.9496 23.5832 15.9928C23.5832 17.0359 23.3858 18.0184 22.9911 18.9403C22.5964 19.8621 22.0532 20.6689 21.3617 21.3607C20.6702 22.0525 19.8657 22.5959 18.9482 22.9909C18.0305 23.3857 17.0501 23.5832 16.0069 23.5832Z" fill="#3D70CC"/>
</g>
</svg>
