<svg width="32" height="32" viewBox="0 0 32 32" fill="none" xmlns="http://www.w3.org/2000/svg">
<rect width="32" height="32" rx="2" fill="white"/>
<mask id="mask0_439_6983" style="mask-type:alpha" maskUnits="userSpaceOnUse" x="6" y="6" width="20" height="20">
<rect x="6" y="6" width="20" height="20" fill="#D9D9D9"/>
</mask>
<g mask="url(#mask0_439_6983)">
<path d="M10.7563 22.3271C10.3812 22.3271 10.0641 22.1951 9.80505 21.9313C9.54602 21.6674 9.4165 21.3527 9.4165 20.9873V18.5002C9.4165 18.1251 9.54602 17.808 9.80505 17.549C10.0641 17.2899 10.3812 17.1604 10.7563 17.1604H21.2434C21.6088 17.1604 21.9234 17.2899 22.1873 17.549C22.4512 17.808 22.5832 18.1251 22.5832 18.5002V20.9873C22.5832 21.3527 22.4512 21.6674 22.1873 21.9313C21.9234 22.1951 21.6088 22.3271 21.2434 22.3271H10.7563ZM10.7563 14.84C10.3812 14.84 10.0641 14.7081 9.80505 14.4442C9.54602 14.1803 9.4165 13.8656 9.4165 13.5002V11.0131C9.4165 10.638 9.54602 10.3209 9.80505 10.0619C10.0641 9.80285 10.3812 9.67334 10.7563 9.67334H21.2434C21.6088 9.67334 21.9234 9.80285 22.1873 10.0619C22.4512 10.3209 22.5832 10.638 22.5832 11.0131V13.5002C22.5832 13.8656 22.4512 14.1803 22.1873 14.4442C21.9234 14.7081 21.6088 14.84 21.2434 14.84H10.7563ZM21.2434 10.7567H10.7563C10.6921 10.7567 10.6334 10.7834 10.58 10.8369C10.5266 10.8902 10.4998 10.949 10.4998 11.0131V13.5002C10.4998 13.5644 10.5266 13.6231 10.58 13.6765C10.6334 13.7299 10.6921 13.7567 10.7563 13.7567H21.2434C21.3075 13.7567 21.3663 13.7299 21.4196 13.6765C21.4731 13.6231 21.4998 13.5644 21.4998 13.5002V11.0131C21.4998 10.949 21.4731 10.8902 21.4196 10.8369C21.3663 10.7834 21.3075 10.7567 21.2434 10.7567Z" fill="#3D70CC"/>
</g>
</svg>
