<svg width="30" height="30" viewBox="0 0 30 30" fill="none" xmlns="http://www.w3.org/2000/svg">
<mask id="mask0_439_6901" style="mask-type:alpha" maskUnits="userSpaceOnUse" x="-9" y="-10" width="48" height="49">
<rect x="-9" y="-9.56152" width="48" height="48" fill="#D9D9D9"/>
</mask>
<g mask="url(#mask0_439_6901)">
<path d="M2.8845 29.4385C2.10017 29.4385 1.42333 29.1538 0.854 28.5845C0.284667 28.0152 0 27.3383 0 26.554V21.423C0 21.101 0.1095 20.8313 0.3285 20.614C0.547167 20.397 0.819 20.2885 1.144 20.2885C1.46867 20.2885 1.73733 20.397 1.95 20.614C2.163 20.8313 2.2695 21.101 2.2695 21.423V26.554C2.2695 26.7077 2.3335 26.8487 2.4615 26.977C2.58983 27.105 2.73083 27.169 2.8845 27.169H27.1155C27.2692 27.169 27.4102 27.105 27.5385 26.977C27.6665 26.8487 27.7305 26.7077 27.7305 26.554V21.423C27.7305 21.101 27.84 20.8313 28.059 20.614C28.278 20.397 28.5498 20.2885 28.8745 20.2885C29.1992 20.2885 29.4678 20.397 29.6805 20.614C29.8935 20.8313 30 21.101 30 21.423V26.554C30 27.3383 29.7153 28.0152 29.146 28.5845C28.5767 29.1538 27.8998 29.4385 27.1155 29.4385H2.8845ZM13.8655 3.8345L9.146 8.554C8.92967 8.777 8.668 8.88333 8.361 8.873C8.05367 8.86267 7.7755 8.746 7.5265 8.523C7.30483 8.28467 7.197 8.00917 7.203 7.6965C7.20867 7.3835 7.323 7.1155 7.546 6.8925L13.9915 0.447C14.1432 0.295333 14.3023 0.182833 14.469 0.1095C14.6353 0.0365001 14.8153 0 15.009 0C15.203 0 15.3802 0.0365001 15.5405 0.1095C15.7008 0.182833 15.8565 0.295166 16.0075 0.4465L22.4845 6.923C22.7075 7.146 22.8223 7.4095 22.829 7.7135C22.8353 8.01717 22.727 8.287 22.504 8.523C22.255 8.746 21.9767 8.8575 21.669 8.8575C21.3613 8.8575 21.0897 8.73967 20.854 8.504L16.1345 3.8345V21.1345C16.1345 21.4568 16.0252 21.7265 15.8065 21.9435C15.5875 22.1605 15.3157 22.269 14.991 22.269C14.6663 22.269 14.3975 22.1605 14.1845 21.9435C13.9718 21.7265 13.8655 21.4568 13.8655 21.1345V3.8345Z" fill="#222222"/>
</g>
</svg>
