<svg width="20" height="20" viewBox="0 0 20 20" fill="none" xmlns="http://www.w3.org/2000/svg">
<mask id="mask0_531_623" style="mask-type:alpha" maskUnits="userSpaceOnUse" x="0" y="0" width="20" height="20">
<rect width="20" height="20" fill="#D9D9D9"/>
</mask>
<g mask="url(#mask0_531_623)">
<path d="M9.02441 14.5C9.06163 14.8748 9.14146 15.2372 9.25684 15.583H1.95801C1.80466 15.5829 1.67595 15.5317 1.57227 15.4287C1.46847 15.3257 1.41702 15.198 1.41699 15.0459C1.41699 14.8937 1.4686 14.7648 1.57227 14.6592C1.67595 14.5534 1.80466 14.5001 1.95801 14.5H9.02441ZM3.20703 8.41699C3.42661 8.41699 3.61425 8.49357 3.76855 8.64746C3.92284 8.8014 3.99993 8.98833 4 9.20801V12.3877C3.99999 12.6076 3.92312 12.7944 3.76953 12.9482C3.61578 13.1021 3.42857 13.1797 3.20898 13.1797C2.98941 13.1796 2.80266 13.102 2.64844 12.9482C2.49404 12.7944 2.417 12.6077 2.41699 12.3877V9.20801C2.41706 8.98827 2.49378 8.80142 2.64746 8.64746C2.80109 8.49374 2.98754 8.41709 3.20703 8.41699ZM7.06348 4.41699C7.28301 4.41708 7.46982 4.4937 7.62402 4.64746C7.7784 4.80142 7.8554 4.98827 7.85547 5.20801V12.3877C7.85546 12.6077 7.77871 12.7944 7.625 12.9482C7.47136 13.102 7.28495 13.1796 7.06543 13.1797C6.84585 13.1797 6.65835 13.1021 6.50391 12.9482C6.3497 12.7944 6.27247 12.6076 6.27246 12.3877V5.20801C6.27253 4.98831 6.3493 4.80141 6.50293 4.64746C6.65668 4.49357 6.84389 4.41699 7.06348 4.41699ZM10.9268 6.91699C11.1465 6.91699 11.334 6.99357 11.4883 7.14746C11.6425 7.30138 11.7197 7.48837 11.7197 7.70801V9.55078C11.1081 9.86487 10.5687 10.2997 10.1357 10.8262V7.70801C10.1358 7.48827 10.2135 7.30142 10.3672 7.14746C10.5209 6.99371 10.7073 6.91701 10.9268 6.91699ZM14.791 2.41699C15.0105 2.41709 15.1974 2.49369 15.3516 2.64746C15.5059 2.80142 15.5829 2.98827 15.583 3.20801V9.25684C15.0854 9.09085 14.5534 9 14 9V3.20801C14.0001 2.9883 14.0768 2.80141 14.2305 2.64746C14.3842 2.49357 14.5714 2.41699 14.791 2.41699Z" fill="#3D70CC"/>
<path d="M13.4311 14.6137L12.6957 13.8892C12.6348 13.8284 12.5693 13.7973 12.4991 13.7958C12.429 13.7944 12.3621 13.8256 12.2984 13.8892C12.2347 13.953 12.2029 14.021 12.2029 14.0934C12.2029 14.1658 12.2347 14.2338 12.2984 14.2976L13.1859 15.1852C13.2581 15.2573 13.3398 15.2933 13.4311 15.2933C13.5224 15.2933 13.6041 15.2573 13.6763 15.1852L15.6932 13.1682C15.754 13.1074 15.7851 13.04 15.7866 12.9662C15.788 12.8924 15.7568 12.8236 15.6932 12.7599C15.6295 12.6962 15.5632 12.6644 15.4945 12.6644C15.4258 12.6644 15.3596 12.6962 15.2958 12.7599L13.4311 14.6137ZM14.0008 18C13.4525 18 12.9352 17.8959 12.449 17.6877C11.9628 17.4795 11.5372 17.193 11.1723 16.8282C10.8074 16.4635 10.5208 16.0381 10.3124 15.5521C10.1041 15.0661 10 14.549 10 14.0008C10 13.4452 10.1041 12.9261 10.3123 12.4435C10.5205 11.961 10.807 11.5372 11.1718 11.1723C11.5365 10.8074 11.9619 10.5208 12.4479 10.3124C12.9339 10.1041 13.451 10 13.9992 10C14.5548 10 15.0739 10.1041 15.5565 10.3123C16.039 10.5205 16.4628 10.807 16.8277 11.1718C17.1926 11.5365 17.4792 11.9601 17.6876 12.4424C17.8959 12.9248 18 13.4437 18 13.9992C18 14.5475 17.8959 15.0648 17.6877 15.551C17.4795 16.0372 17.193 16.4628 16.8282 16.8277C16.4635 17.1926 16.0399 17.4792 15.5576 17.6876C15.0752 17.8959 14.5563 18 14.0008 18Z" fill="#3D70CC"/>
</g>
</svg>
