<svg width="20" height="20" viewBox="0 0 20 20" fill="none" xmlns="http://www.w3.org/2000/svg">
<mask id="mask0_531_631" style="mask-type:alpha" maskUnits="userSpaceOnUse" x="0" y="0" width="20" height="20">
<rect width="20" height="20" fill="#D9D9D9"/>
</mask>
<g mask="url(#mask0_531_631)">
<path d="M4.50002 15.5001H5.42627L13.6234 7.303L12.6971 6.37675L4.50002 14.5738V15.5001ZM4.09044 16.5834C3.90224 16.5834 3.74294 16.5196 3.61252 16.392C3.48196 16.2643 3.41669 16.1061 3.41669 15.9174V14.6849C3.41669 14.5049 3.44877 14.3332 3.51294 14.1699C3.57696 14.0065 3.67738 13.8565 3.81419 13.7197L13.7838 3.73404C13.8959 3.61959 14.0165 3.53814 14.1456 3.48966C14.2748 3.44105 14.4102 3.41675 14.5517 3.41675C14.6934 3.41675 14.8286 3.43946 14.9573 3.48487C15.0862 3.53029 15.211 3.61071 15.3317 3.72612L16.2661 4.65237C16.3815 4.77307 16.4632 4.89807 16.5113 5.02737C16.5593 5.15668 16.5834 5.2898 16.5834 5.42675C16.5834 5.57272 16.5581 5.71203 16.5075 5.84466C16.4568 5.9773 16.3763 6.09855 16.2661 6.20841L6.28044 16.1859C6.14363 16.3227 5.99391 16.4231 5.83127 16.4872C5.66863 16.5513 5.49759 16.5834 5.31815 16.5834H4.09044ZM13.1521 6.848L12.6971 6.37675L13.6234 7.303L13.1521 6.848Z" fill="#3D70CC"/>
</g>
</svg>
