<svg width="320" height="75" viewBox="0 0 320 75" fill="none" xmlns="http://www.w3.org/2000/svg">
<g clip-path="url(#clip0_296_2491)">
<path d="M61.6221 59.2649C64.9716 62.0952 69.2737 63.543 73.6528 63.3136C76.3324 63.3389 78.9957 62.8949 81.5221 62.0016C81.6313 60.9368 81.8318 59.8834 82.1216 58.8531C80.2865 60.2444 77.138 60.8399 73.9895 60.8399C64.5996 60.8399 60.8751 54.266 60.6678 48.3599H57.0503C57.0288 50.3932 57.4234 52.4094 58.2096 54.2847C58.9958 56.16 60.1571 57.8548 61.6221 59.2649Z" fill="#4D4397"/>
<path d="M60.6675 48.36C60.6675 48.1847 60.6482 48.0093 60.6482 47.8354C60.5616 46.2338 60.8064 44.6316 61.3673 43.1289C61.9282 41.6262 62.7932 40.2554 63.908 39.1022C65.0511 38.0553 66.3939 37.2502 67.8559 36.7352C69.3179 36.2202 70.869 36.006 72.4158 36.1053C76.9877 36.1053 80.3601 37.53 81.8238 39.066C81.8621 37.8756 82.0376 36.6935 82.3469 35.5433C79.2203 34.4819 75.9416 33.9377 72.6399 33.9321C67.0552 33.9321 63.4209 35.7673 61.0585 38.0532C59.7457 39.3925 58.7147 40.9812 58.0262 42.7257C57.3378 44.4701 57.0059 46.3348 57.0502 48.2097C57.0502 48.257 57.0502 48.3113 57.0502 48.36H60.6675Z" fill="#222222"/>
<path d="M109.265 52.4086C106.082 44.8955 102.466 36.6256 101.979 35.5195L100.646 39.5905C100.646 39.5905 109.472 61.6608 109.865 62.7891C110.673 62.7017 111.486 62.6641 112.299 62.6764C112.717 62.6764 113.35 62.714 114.023 62.7501C112.243 59.3957 110.654 55.943 109.265 52.4086Z" fill="#E52D8A"/>
<path d="M99.9549 41.4843L99.9882 41.391C100.298 40.5312 100.515 39.9371 100.598 39.7076L100.639 39.5921L101.972 35.5211L101.95 35.4697C101.426 34.2342 101.239 33.9392 101.051 33.9392C100.826 33.9392 100.634 34.3886 100.19 35.4697L92.7701 53.871C91.2703 57.5065 89.8485 60.8039 88.9108 62.7907C89.2099 62.7517 90.1476 62.678 90.8962 62.678C91.3968 62.6532 91.8986 62.6779 92.3945 62.7517C92.688 61.5969 98.0321 46.8018 99.9549 41.4843Z" fill="#222222"/>
<path d="M131.969 51.2455C134.221 54.5571 136.647 57.7468 139.238 60.801C140.768 62.4121 141.674 62.8991 143.362 62.8991C144.181 62.938 145 62.8626 145.798 62.6751C144.472 61.8838 143.302 60.8547 142.349 59.6393C139.763 56.865 137.027 53.0807 134.629 49.9001C133.659 50.4619 132.591 50.8314 131.482 50.9881C131.578 50.988 131.672 51.0113 131.757 51.0562C131.842 51.1011 131.915 51.1661 131.969 51.2455Z" fill="#E73820"/>
<path d="M126.235 51.172C126.235 51.0217 126.235 50.9466 126.346 50.9466C127.996 50.9856 130.696 51.0218 131.482 50.9856C132.591 50.8288 133.659 50.4594 134.629 49.8976C136.013 49.0724 137.161 47.9044 137.962 46.5062C138.763 45.1081 139.19 43.527 139.202 41.9157C139.213 40.6919 138.912 39.4855 138.328 38.4101C137.744 37.3347 136.895 36.4257 135.863 35.7689C133.835 34.7453 131.572 34.2795 129.306 34.4193C127.994 34.4193 125.106 34.5696 124.359 34.5696C123.783 34.5798 123.207 34.5547 122.634 34.4944C123.081 38.0864 123.232 41.7091 123.085 45.3257V51.9219C123.146 55.5489 123.02 59.1766 122.709 62.7908C123.443 62.7087 124.182 62.6711 124.92 62.6781C125.471 62.658 126.023 62.6826 126.57 62.7518C126.382 61.1031 126.234 57.0558 126.234 52.3338L126.235 51.172ZM126.235 36.8179C126.235 36.669 126.235 36.5925 126.384 36.555C127.29 36.4291 128.205 36.3788 129.119 36.4047C133.432 36.4047 135.978 38.8395 135.978 42.8131C135.996 43.9268 135.746 45.0286 135.25 46.0261C134.755 47.0236 134.027 47.8879 133.129 48.5466C132.469 48.9204 131.709 49.0776 130.955 48.996C129.414 49.0226 127.873 48.9348 126.345 48.7331C126.271 48.6955 126.234 48.6204 126.234 48.3964L126.235 36.8179Z" fill="#222222"/>
<path d="M170.078 42.1828C170.095 40.2142 169.341 38.3169 167.979 36.8959C166.406 35.4712 164.493 34.4597 160.033 34.4597C158.994 34.4597 157.981 34.4875 157.111 34.5154V37.2326C157.111 36.5968 157.111 36.5202 157.299 36.4841C158.052 36.3401 158.818 36.2771 159.585 36.2962C161.15 36.223 162.702 36.6141 164.045 37.4204C164.951 37.9675 165.689 38.7532 166.178 39.6916C166.667 40.63 166.889 41.6849 166.818 42.7408C166.818 47.0538 163.595 48.7387 160.034 48.8875C160.186 49.2632 160.452 50.2788 160.559 50.6865C165.918 50.7227 170.078 47.4614 170.078 42.1828Z" fill="#009F50"/>
<path d="M157.106 37.4005V37.228C157.106 37.228 157.106 36.5031 157.106 36.3362C157.097 35.7226 157.149 35.1098 157.262 34.5066C156.376 34.5344 155.481 34.5678 155.009 34.5678C154.485 34.5678 153.96 34.5678 153.546 34.5316C153.869 38.1194 153.995 41.7224 153.921 45.324V51.9201C153.921 56.7897 153.771 61.3268 153.621 62.789C154.292 62.7052 154.969 62.6675 155.645 62.6763C156.233 62.6613 156.822 62.686 157.407 62.7501C157.258 61.1389 157.106 56.6422 157.106 52.037V37.4005Z" fill="#222222"/>
<path d="M189.263 48.9581C190.14 48.9602 191.007 49.1386 191.814 49.4826C191.806 48.4386 191.907 47.3966 192.113 46.373C191.051 46.5763 189.972 46.6765 188.891 46.6722C187.84 46.7097 182.838 46.7111 182.783 46.7083V48.8092C182.881 48.805 187.992 48.8844 189.263 48.9581Z" fill="#009CD3"/>
<path d="M183.908 60.5023C183.607 60.4935 183.312 60.4169 183.045 60.2783C182.858 60.0904 182.783 59.0428 182.783 51.6522V36.8181C182.785 36.7785 182.801 36.7411 182.829 36.7133C182.857 36.6854 182.895 36.6692 182.935 36.6678C186.157 36.6678 188.331 36.7416 189.456 36.8556C190.485 36.8486 191.505 37.0527 192.453 37.4553C192.462 36.4244 192.562 35.3964 192.753 34.3833C191.76 34.5234 190.758 34.5857 189.755 34.5697H181.435C180.697 34.5878 179.959 34.5627 179.224 34.4946C179.575 38.0937 179.7 41.7112 179.598 45.3259V51.9221C179.598 57.209 179.41 61.4414 179.3 62.7534C179.718 62.7172 180.573 62.6796 181.666 62.6796C183.09 62.6796 185.899 62.9036 191.11 62.9036C191.748 62.9371 192.387 62.9124 193.02 62.8299C193.17 62.0814 193.471 60.7304 193.732 59.9082C192.683 60.4327 191.072 60.6957 187.512 60.6957C185.891 60.6901 184.767 60.5829 183.908 60.5023Z" fill="#222222"/>
<path d="M224.4 63.1638C230.922 63.1638 234.443 60.6595 236.244 58.816C238.785 56.0319 240.184 52.3927 240.163 48.6233H236.675C236.675 48.8222 236.693 49.0198 236.693 49.2216C236.761 50.9488 236.454 52.6703 235.794 54.268C235.134 55.8656 234.136 57.3018 232.87 58.4779C230.545 60.2609 227.664 61.1642 224.738 61.0282C222.75 61.1704 220.755 60.8755 218.894 60.1642C218.745 60.0529 218.707 59.6396 218.67 58.8911V62.8313L220.061 62.9704C221.402 63.0845 222.827 63.1638 224.4 63.1638Z" fill="#009F50"/>
<path d="M218.317 59.5576C218.278 58.5448 218.242 55.4714 218.242 51.4978V45.7976C218.242 41.9382 218.242 38.3027 218.317 37.589C218.314 37.5354 218.326 37.4822 218.353 37.4355C218.379 37.3889 218.418 37.3508 218.466 37.326C219.602 37.1117 220.757 37.0111 221.914 37.0255C226.711 37.0255 231.096 38.2262 233.681 41.3733C235.43 43.6353 236.362 46.4225 236.325 49.2815H239.813C239.813 49.1674 239.828 49.0603 239.828 48.9434C239.941 45.4369 238.661 42.0283 236.268 39.463C232.559 35.6759 226.861 35.0776 221.99 35.0776C219.515 35.0776 217.381 35.2279 216.481 35.2279C215.88 35.2279 215.057 35.1917 214.682 35.1528C215.003 38.7286 215.115 42.3201 215.019 45.909V52.8057C215.019 58.3903 214.868 61.7991 214.794 63.3796C216.002 63.321 217.212 63.3643 218.412 63.509C218.33 62.9518 218.298 62.3884 218.316 61.8255L218.317 59.5576Z" fill="#222222"/>
<path d="M316.105 62.7896C316.863 62.7023 317.627 62.6647 318.391 62.6769C318.929 62.6506 319.468 62.6753 320.002 62.7506C319.479 60.5774 318.471 49.6334 317.637 40.7889C317.449 38.7659 317.262 36.7805 317.113 34.9802C317 34.0814 316.925 33.9312 316.777 33.9312C316.664 33.9312 316.475 34.08 316.102 34.7548C314.94 37.0783 313.852 39.2904 311.867 42.7757L304.558 57.2452L305.826 59.6105C308.699 53.7155 312.107 47.1054 314.827 41.4734C315.242 48.473 316.141 60.4271 316.105 62.7896Z" fill="#4D4397"/>
<path d="M304.561 57.242L296.28 40.9401C295.269 39.1022 293.432 35.4681 292.908 34.568C292.682 34.2313 292.57 33.9321 292.419 33.9321C292.307 33.9321 292.231 34.0434 292.156 34.4887C291.969 36.2876 291.781 38.2368 291.557 40.3725C290.658 49.3297 289.383 60.7982 288.97 62.785C289.628 62.6931 290.293 62.6554 290.957 62.6723C291.433 62.6617 291.909 62.6864 292.382 62.746C292.382 60.4226 293.356 48.0567 293.773 41.3854C296.771 47.9801 300.069 54.5012 303.817 62.4831C304.08 63.0827 304.193 63.0827 304.49 62.4093C304.951 61.4354 305.34 60.6006 305.833 59.5961L304.561 57.242Z" fill="#222222"/>
<path d="M251.689 34.5681C251.24 34.5681 250.453 34.5681 250.114 34.5319C250.447 38.107 250.56 41.6992 250.452 45.2881V48.6049H253.674V45.3242C253.674 40.0039 253.825 35.8439 253.936 34.4568C253.706 34.4902 252.951 34.5486 252.063 34.5625C251.937 34.5653 251.818 34.5681 251.689 34.5681Z" fill="#222222"/>
<path d="M253.674 48.6038H250.452V51.9192C250.452 56.7888 250.339 61.5192 250.19 62.7881C250.485 62.7547 251.348 62.6963 252.063 62.681C252.163 62.681 252.27 62.681 252.364 62.681C252.963 62.681 253.674 62.7185 254.012 62.7547C253.719 59.1522 253.605 55.5372 253.674 51.9234V48.6038Z" fill="#E73820"/>
<path d="M275.99 48.9581C276.866 48.9604 277.733 49.1388 278.539 49.4826C278.531 48.4385 278.631 47.3965 278.838 46.373C277.776 46.5763 276.697 46.6764 275.616 46.6722C274.564 46.7097 269.562 46.7111 269.506 46.7083V48.8092C269.607 48.805 274.717 48.8844 275.99 48.9581Z" fill="#E52D8A"/>
<path d="M270.632 60.5022C270.331 60.4935 270.037 60.4169 269.77 60.2783C269.582 60.0904 269.507 59.0428 269.507 51.6522V36.8181C269.508 36.7788 269.525 36.7415 269.553 36.7137C269.581 36.6859 269.618 36.6695 269.657 36.6678C272.879 36.6678 275.054 36.7416 276.178 36.8556C277.208 36.8486 278.228 37.0527 279.176 37.4553C279.186 36.4244 279.286 35.3964 279.477 34.3833C278.484 34.5234 277.481 34.5858 276.479 34.5697H268.157C267.419 34.5878 266.681 34.5627 265.946 34.4946C266.298 38.0936 266.424 41.7112 266.322 45.3259V51.9221C266.322 57.209 266.136 61.4414 266.023 62.7534C266.44 62.7172 267.297 62.6796 268.388 62.6796C269.813 62.6796 272.623 62.9036 277.834 62.9036C278.471 62.937 279.111 62.9123 279.744 62.8299C279.893 62.0814 280.193 60.7304 280.456 59.9082C279.407 60.4327 277.795 60.6956 274.236 60.6956C272.618 60.6901 271.493 60.5829 270.632 60.5022Z" fill="#222222"/>
<path d="M52.0786 58.8521C48.4131 59.9753 45.0714 61.9634 42.3352 64.6487C39.5991 67.334 37.5486 70.6378 36.3568 74.2816C44.9133 73.1088 49.7607 66.066 52.0786 58.8521Z" fill="#00A6E9"/>
<path d="M50.2404 55.5966C50.2404 55.5966 39.8849 53.4428 31.11 67.4964C37.8244 67.3155 45.9357 65.326 50.2404 55.5966Z" fill="#4D4397"/>
<path d="M47.8189 54.127C39.5143 53.0558 31.0821 54.5927 23.6895 58.5249C30.9646 61.6289 42.3329 60.7649 47.8189 54.127Z" fill="#E52D8A"/>
<path d="M47.9695 48.2416C47.9695 48.2416 19.605 45.0945 6.01892 52.0483C14.6186 56.666 28.4384 60.9526 47.9695 48.2416Z" fill="#FFF100"/>
<path d="M48.2946 44.4922C48.2946 44.4922 21.9101 35.2581 6.29688 39.3945C9.18383 41.6498 23.4696 54.6181 48.2946 44.4922Z" fill="#E73820"/>
<path d="M49.2346 40.7886C49.2346 40.7886 23.4788 23.2832 0.00195312 27.933C7.32022 35.2109 22.3407 43.9497 49.2346 40.7886Z" fill="#009F50"/>
<path d="M50.4751 36.7831C50.4751 36.7831 29.5346 14.8004 5.4386 14.5723C9.8393 21.8446 24.8209 35.9399 50.4751 36.7831Z" fill="#00A6E9"/>
<path d="M56.0316 33.3117C56.0316 33.3117 48.9359 -1.40965 12.5143 0.0428698C15.9327 9.23243 24.7676 27.0342 56.0316 33.3117Z" fill="#4D4397"/>
</g>
<defs>
<clipPath id="clip0_296_2491">
<rect width="320" height="74.2817" fill="white"/>
</clipPath>
</defs>
</svg>
